# xmcd CD database file
#
# Track frame offsets:
#	150
#	5378
#	33669
#	71840
#	92839
#	134935
#	181176
#	223293
#	252462
#
# Disc length: 3906 seconds
#
# Revision: 0
# Processed by: cddbd v1.5.2PL0 Copyright (c) Steve Scherf et al.
# Submitted via: CDex 1.70beta2
#
DISCID=8d0f4009
DTITLE=Sonora Ponceña - 50 Aniversario - 50 Aniversario
DYEAR=1900
DGENRE=Salsa
TTITLE0=Introduccion
TTITLE1=Ecue Baroni
TTITLE2=La Clave
TTITLE3=Vas Por Hay
TTITLE4=Como Mango
TTITLE5=Yare
TTITLE6=Piano Salsero
TTITLE7=Tumba La Caña Jibarito
TTITLE8=Jubileo
EXTD=
EXTT0=
EXTT1=
EXTT2=
EXTT3=
EXTT4=
EXTT5=
EXTT6=
EXTT7=
EXTT8=
PLAYORDER=
